<?xml version="1.0" encoding="utf-8"?>
<!-- Generator: Adobe Illustrator 25.2.0, SVG Export Plug-In . SVG Version: 6.00 Build 0)  -->
<svg version="1.1" id="Calque_1" xmlns="http://www.w3.org/2000/svg" xmlns:xlink="http://www.w3.org/1999/xlink" x="0px" y="0px"
	 viewBox="0 0 90 81.8" style="enable-background:new 0 0 90 81.8;" xml:space="preserve">
<path d="M90,77.8l-8.7-10.2l-0.2,4l-9.5-4.7V33.4c0,0,0,0,0,0c0,0,0-0.1,0-0.1c0,0,0-0.1,0-0.1c0,0,0-0.1,0-0.1c0,0,0-0.1,0-0.1
	c0,0,0-0.1,0-0.1c0,0,0-0.1,0-0.1c0,0,0,0,0,0c0,0,0,0,0,0c0,0,0-0.1-0.1-0.1c0,0,0-0.1-0.1-0.1c0,0,0,0-0.1-0.1c0,0,0,0-0.1-0.1
	c0,0-0.1-0.1-0.1-0.1c0,0,0,0-0.1-0.1c0,0,0,0-0.1-0.1c0,0-0.1,0-0.1-0.1c0,0-0.1,0-0.1-0.1c0,0,0,0,0,0L46.6,19.9v-9.1l3.6,1.5
	L45,0l-5.2,12.3l3.6-1.5v9.1L19.3,32c0,0,0,0,0,0c0,0-0.1,0-0.1,0.1c0,0-0.1,0-0.1,0.1c0,0,0,0-0.1,0.1c0,0,0,0-0.1,0.1
	c0,0-0.1,0.1-0.1,0.1c0,0,0,0-0.1,0.1c0,0,0,0-0.1,0.1c0,0,0,0.1-0.1,0.1c0,0,0,0.1-0.1,0.1c0,0,0,0,0,0c0,0,0,0,0,0
	c0,0,0,0.1,0,0.1c0,0,0,0.1,0,0.1c0,0,0,0.1,0,0.1c0,0,0,0.1,0,0.1c0,0,0,0.1,0,0.1c0,0,0,0.1,0,0.1c0,0,0,0,0,0v33.4L9,71.5l-0.2-4
	L0,77.8l13.4-0.9l-3-2.6l9.7-4.8l24.3,12.1c0,0,0,0,0.1,0c0,0,0,0,0.1,0c0.1,0,0.2,0.1,0.2,0.1c0,0,0,0,0,0c0.1,0,0.2,0,0.3,0
	s0.2,0,0.3,0c0,0,0,0,0,0c0.1,0,0.2,0,0.2-0.1c0,0,0,0,0.1,0c0,0,0,0,0.1,0L70,69.5l9.7,4.8l-3,2.6L90,77.8z M46.6,46.9l21.9-10.9
	v29.3L46.6,54.3V46.9z M66.5,33.4l-19.9,10V23.4L66.5,33.4z M43.4,43.4l-19.9-10l19.9-10V43.4z M21.6,35.9l21.9,10.9v7.4L21.6,65.2
	V35.9z M43.4,57.8v19.9l-19.9-10L43.4,57.8z M46.6,77.7V57.8l19.9,10L46.6,77.7z"/>
</svg>
