<?xml version="1.0" encoding="UTF-8" standalone="no"?>
<!-- Generator: Adobe Illustrator 25.2.0, SVG Export Plug-In . SVG Version: 6.00 Build 0)  -->

<svg
   version="1.1"
   id="Calque_1"
   x="0px"
   y="0px"
   viewBox="0 0 93 73"
   xml:space="preserve"
   sodipodi:docname="brain.svg"
   inkscape:version="1.1 (c4e8f9e, 2021-05-24)"
   xmlns:inkscape="http://www.inkscape.org/namespaces/inkscape"
   xmlns:sodipodi="http://sodipodi.sourceforge.net/DTD/sodipodi-0.dtd"
   xmlns="http://www.w3.org/2000/svg"
   xmlns:svg="http://www.w3.org/2000/svg"><defs
   id="defs9" /><sodipodi:namedview
   id="namedview7"
   pagecolor="#ffffff"
   bordercolor="#666666"
   borderopacity="1.0"
   inkscape:pageshadow="2"
   inkscape:pageopacity="0.0"
   inkscape:pagecheckerboard="0"
   showgrid="false"
   inkscape:zoom="9.4520548"
   inkscape:cx="46.497826"
   inkscape:cy="36.5"
   inkscape:window-width="1680"
   inkscape:window-height="912"
   inkscape:window-x="0"
   inkscape:window-y="25"
   inkscape:window-maximized="0"
   inkscape:current-layer="Calque_1" />
<g
   transform="translate(0,-952.36216)"
   id="g4">
	<path
   d="M58.2,953.4c-0.5,0-1,0.3-1.2,0.7l-16.7,0.6c-0.3-0.3-0.6-0.5-1-0.5c-0.6,0-1.1,0.3-1.3,0.9l-21.8,10   c-0.2-0.1-0.3-0.1-0.5-0.1c-0.7,0-1.3,0.6-1.4,1.3L8.2,973L7,974.1c-0.1,0-0.2,0-0.3,0c-0.8,0-1.4,0.6-1.4,1.4l0,0   c0,0.4,0.2,0.7,0.4,1l-3.3,11.8c-0.4,0.2-0.7,0.7-0.7,1.2c0,0.7,0.5,1.2,1.1,1.3l5,12c-0.2,0.2-0.3,0.5-0.3,0.9   c0,0.8,0.6,1.4,1.4,1.4l0,0c0.4,0,0.8-0.2,1.1-0.5l11.7,2.7c0.1,0.7,0.7,1.2,1.4,1.2c0.4,0,0.8-0.2,1.1-0.6l8.5,2.3   c0.2,0.5,0.7,0.8,1.2,0.8c0.8,0,1.4-0.6,1.4-1.4v-0.1l3.8-3.3c0.2,0.1,0.4,0.2,0.6,0.2c0.4,0,0.9-0.2,1.1-0.6l4.6,1.5   c0.2,0.6,0.7,1,1.3,1c0.1,0,0.2,0,0.3,0l8.9,9.2c0,0.1,0,0.2,0,0.2c0,0.8,0.6,1.4,1.4,1.4c0.1,0,0.2,0,0.3,0l4.3,3.7   c0,0.1,0,0.2,0,0.3c0,0.8,0.6,1.4,1.4,1.4c0.7,0,1.3-0.6,1.4-1.3l3.9-0.8c0.3,0.3,0.7,0.5,1.1,0.5c0.8,0,1.4-0.6,1.4-1.4l0,0   c0-0.8-0.6-1.4-1.4-1.4c-0.2,0-0.3,0-0.5,0.1l-2.4-5.1c0.1-0.2,0.2-0.5,0.2-0.8c0-0.1,0-0.2,0-0.3l1.5-2.3c0.1,0,0.3,0.1,0.4,0.1   c0.5,0,0.9-0.2,1.1-0.6l5,0.4c0.2,0.5,0.7,0.8,1.3,0.8c0.8,0,1.4-0.6,1.4-1.4v-0.1l2.8-4.4c0.3-0.1,0.6-0.2,0.8-0.4h2.6   c0.2,0.5,0.7,0.8,1.3,0.8c0.8,0,1.4-0.6,1.4-1.4c0-0.4-0.2-0.8-0.5-1l4.8-7.2c0.7-0.1,1.2-0.7,1.2-1.4c0-0.6-0.4-1.2-1-1.3   l-1.4-8.9c0.4-0.2,0.7-0.7,0.7-1.2c0-0.8-0.6-1.4-1.4-1.4c-0.1,0-0.1,0-0.2,0l-9.1-15.9c0.1-0.2,0.2-0.5,0.2-0.7   c0-0.8-0.6-1.4-1.4-1.4c-0.2,0-0.5,0.1-0.7,0.2l-18-10.9C59.4,953.8,58.9,953.4,58.2,953.4L58.2,953.4z M56.9,955.1   c0.1,0.5,0.6,0.9,1.2,1l2.1,9.1l-19.4-9.4v-0.1L56.9,955.1L56.9,955.1z M59.4,955.5l16.7,10.2l-13.6,0.1c-0.2-0.5-0.7-0.8-1.2-0.8   c-0.1,0-0.1,0-0.2,0l-2.1-9.2C59.2,955.8,59.3,955.6,59.4,955.5L59.4,955.5z M38.1,956.2c0.1,0.2,0.2,0.3,0.3,0.4l-7.1,11   c-0.1,0-0.3-0.1-0.4-0.1c-0.5,0-1,0.3-1.2,0.7L17.2,966c0-0.1,0-0.1-0.1-0.2L38.1,956.2L38.1,956.2z M40.2,956.7l18.2,8.8   l-14.6,1.6L40.2,956.7z M39.3,957.2l3.5,10.1l-10.6,1.2v-0.1L39.3,957.2L39.3,957.2z M59.7,966.4l-13.1,7.9   c-0.1-0.1-0.2-0.1-0.4-0.2l-2.1-6C44.1,968.1,59.7,966.4,59.7,966.4z M76.9,966.7c0,0.3,0.1,0.5,0.3,0.7l-2.8,7.3l-11.8-7.9l0,0   L76.9,966.7L76.9,966.7z M16.9,967.1l12.6,2.2c0,0.1,0.1,0.3,0.2,0.4l-10.2,10.5h-0.1c-0.1,0-0.2,0-0.3,0c-0.1-0.4-0.1-0.8-0.2-1.3   c-0.3-1.5-0.7-3.5-1.1-5.4c-0.5-2.5-1-4.6-1.2-6.1C16.7,967.4,16.8,967.3,16.9,967.1L16.9,967.1z M60,967.5l-6.1,18.6   c-0.1,0-0.3,0.1-0.4,0.2l-6.6-9.8c0.2-0.3,0.4-0.6,0.4-1c0-0.1,0-0.2,0-0.3L60,967.5L60,967.5z M61.9,967.6l12.1,8l-3.6,9.5l0,0   c-0.2,0-0.3,0-0.5,0.1L61.9,967.6L61.9,967.6L61.9,967.6z M15.3,967.7c0.1,0,0.2,0.1,0.3,0.1c0.3,1.5,0.7,3.5,1.2,6   c0.4,1.9,0.8,3.9,1.1,5.4c0.1,0.4,0.1,0.7,0.2,1.1l-10.1-5c0-0.1-0.1-0.3-0.2-0.4l1.1-1.1L15.3,967.7L15.3,967.7z M78.6,967.9   l8.8,15.4l-12.1-8l2.8-7.4h0.1C78.3,967.9,78.4,967.9,78.6,967.9L78.6,967.9z M60.9,967.9l8.2,18.1l-13.6,0.9   c-0.1-0.3-0.3-0.5-0.6-0.7L60.9,967.9z M43.1,968.2l2.1,6c-0.2,0.1-0.3,0.2-0.4,0.3l-12.2-5.2L43.1,968.2z M31.6,970.1l12.8,5.5   l-7.2,4c-0.2-0.2-0.6-0.3-0.9-0.3h-0.1L31.6,970.1L31.6,970.1L31.6,970.1z M30.6,970.4l4.8,9.3c-0.2,0.3-0.4,0.6-0.4,0.9   c0,0.3,0.1,0.6,0.3,0.8l-6.7,10.7h-0.1c-0.2,0-0.4,0-0.5,0.1l-7.5-9.7c0.2-0.3,0.3-0.6,0.3-0.9c0-0.3-0.1-0.6-0.3-0.9L30.6,970.4   L30.6,970.4z M74.9,976.2l12.3,8.2l-15.8,1L74.9,976.2z M7.8,976.3l9.9,4.9L4,988.4c-0.1-0.1-0.3-0.2-0.4-0.2l3.2-11.3   C7.1,976.9,7.6,976.6,7.8,976.3L7.8,976.3z M44.9,976.5c0.3,0.2,0.6,0.4,0.9,0.4l0,0l7,10.3c0,0.1,0,0.2,0,0.3s0,0.2,0,0.3   l-4.7,7.1c-0.1,0-0.2,0-0.3,0l-10.3-13.5c0.1-0.2,0.2-0.5,0.2-0.7c0-0.1,0-0.1,0-0.2L44.9,976.5L44.9,976.5z M36.7,982L47,995.5   l0,0l-17.1-2.4c-0.1-0.2-0.2-0.4-0.3-0.6l6.6-10.6c0.1,0,0.1,0,0.2,0C36.5,982,36.6,982,36.7,982L36.7,982z M18.1,982.1l-5,10.9   c-0.2,0.1-0.4,0.2-0.6,0.3l-8-4v-0.1C4.5,989.3,18.1,982.1,18.1,982.1z M18.8,983.1l2.5,17l-6.7-5c0.1-0.2,0.1-0.4,0.1-0.6   c0-0.5-0.2-0.9-0.7-1.2C14.2,993.2,18.8,983.1,18.8,983.1z M19.9,983.5l7.4,9.5c-0.1,0.2-0.1,0.4-0.1,0.5c0,0.7,0.5,1.3,1.2,1.4   l4.7,13.6c-0.1,0.1-0.2,0.2-0.3,0.3l-10.3-7.8L19.9,983.5L19.9,983.5z M87.5,985.4l-3,7.6l-12.8-6.4v-0.1v-0.1L87.5,985.4   L87.5,985.4z M88.4,986.1l1.3,8.7c-0.2,0.1-0.4,0.3-0.5,0.5l-3.7-1.9L88.4,986.1L88.4,986.1z M68.9,987.1l-1.8,11.7L55.4,988l0,0   L68.9,987.1L68.9,987.1z M69.9,987.8c0.2,0.1,0.3,0.1,0.5,0.1c0.1,0,0.3,0,0.4-0.1l7.5,9.9l-9.7,1.6c-0.1-0.1-0.3-0.2-0.4-0.3   L69.9,987.8L69.9,987.8z M72.2,988l12,6l-1.2,3l-3.5,0.6L72.2,988z M54.7,988.7l11.8,10.8c-0.2,0.2-0.2,0.5-0.2,0.8l0,0l-9.4,5.7   c-0.2-0.1-0.4-0.3-0.6-0.3l-1.9-16.9C54.5,988.7,54.6,988.7,54.7,988.7L54.7,988.7z M53.3,988.8l1.8,16.5l-5.8-8.4   c0.1-0.2,0.2-0.5,0.2-0.7c0-0.4-0.1-0.7-0.4-1L53.3,988.8z M4.1,990.4l7.9,3.9c0,0,0,0,0,0.1c0,0.3,0.1,0.6,0.3,0.9l-3.6,7.1H8.6   l-4.8-11.7C4,990.6,4.1,990.5,4.1,990.4L4.1,990.4z M29.7,994.2l16.9,2.4l-6.6,7.1c-0.2-0.1-0.3-0.1-0.5-0.1   c-0.3,0-0.7,0.1-0.9,0.3L29.7,994.2L29.7,994.2L29.7,994.2z M85.1,994.4l3.4,1.7l-4.3,0.7C84.1,996.8,85.1,994.4,85.1,994.4z    M29.7,995.7l8.5,9.3l0,0c0,0.1,0,0.3,0.1,0.4l-3.6,3.2c-0.2-0.1-0.4-0.2-0.6-0.3L29.7,995.7L29.7,995.7z M13.9,995.7l7.7,5.8   l0.7,4.4c-0.1,0.1-0.2,0.2-0.3,0.3l-11.6-2.7c0-0.3-0.2-0.6-0.5-0.9l3.5-6.9h0.1C13.6,995.8,13.7,995.7,13.9,995.7L13.9,995.7z    M89.5,997L89.5,997l-4.7,7.2c-0.1,0-0.2,0-0.3,0.1l-2.1-2.8l1.4-3.5L89.5,997L89.5,997z M47.2,997.5l-1.3,8.2   c-0.2,0.1-0.4,0.3-0.5,0.5l-4.4-1.5c0-0.1-0.1-0.3-0.1-0.4L47.2,997.5L47.2,997.5z M48.5,997.6l6.1,8.8l-6.7,0.2   c-0.1-0.5-0.5-0.9-0.9-1l1.3-8C48.3,997.6,48.4,997.6,48.5,997.6L48.5,997.6z M82.5,998.1l-0.9,2.3l-1.5-2L82.5,998.1z M79,998.7   l2.2,2.9l-0.9,2.3c-0.1,0-0.2,0-0.3,0c-0.4,0-0.8,0.2-1,0.5l-9.1-4.2L79,998.7L79,998.7z M69.2,1001l9.4,4.3c0,0.4,0.2,0.8,0.5,1   l-2.3,3.7c-0.2-0.2-0.5-0.2-0.8-0.2c-0.1,0-0.1,0-0.2,0L69.2,1001L69.2,1001z M66.6,1001.3c0.2,0.2,0.4,0.3,0.6,0.3l0.7,7.7   c-0.4,0.3-0.6,0.7-0.6,1.1c0,0.2,0.1,0.4,0.2,0.6l-1.4,2.1c-0.2-0.1-0.4-0.2-0.7-0.2c-0.3,0-0.5,0.1-0.8,0.2l-7.4-5.8   c0.1-0.1,0.1-0.3,0.1-0.5v-0.1L66.6,1001.3L66.6,1001.3z M68.2,1001.5l6.7,8.8c-0.1,0.1-0.1,0.2-0.2,0.3l-4.7-0.4   c-0.1-0.6-0.6-1-1.1-1.1L68.2,1001.5L68.2,1001.5L68.2,1001.5z M22.7,1002.4l8.3,6.3l-6.7-1.9c-0.1-0.6-0.6-1.1-1.2-1.2   C23.2,1005.7,22.7,1002.4,22.7,1002.4z M81.9,1002.5l1.8,2.4c0,0.1-0.1,0.1-0.1,0.2h-2.3c0-0.2-0.1-0.4-0.2-0.6L81.9,1002.5   L81.9,1002.5z M54.6,1007.4c0.1,0.5,0.6,0.9,1.1,1l0.5,8.1l-8.5-8.8l0,0L54.6,1007.4L54.6,1007.4z M56.7,1008.4l7.3,5.7   c0,0.1,0,0.2,0,0.3v0.1l-5.8,2.3c-0.2-0.3-0.5-0.4-0.9-0.5L56.7,1008.4L56.7,1008.4z M64.4,1015.4c0.1,0,0.1,0.1,0.2,0.1l-0.9,2.5   c-0.4,0-0.8,0.2-1,0.6l-4.1-0.8v-0.1L64.4,1015.4L64.4,1015.4z M65.6,1015.7l2.1,4.5l-2.7-1c0-0.4-0.2-0.7-0.5-0.9L65.6,1015.7   L65.6,1015.7L65.6,1015.7z M58.9,1019l3.5,0.6c0.1,0.4,0.2,0.7,0.5,0.9l-0.2,1.2c-0.2,0-0.3,0.1-0.5,0.2L58.9,1019L58.9,1019z    M64.8,1020.3l3,1.1l-3.8,0.8c-0.1-0.1-0.2-0.2-0.3-0.2l0.2-1.2C64.3,1020.7,64.6,1020.6,64.8,1020.3L64.8,1020.3z"
   id="path2" />
</g>
</svg>
