<?xml version="1.0" encoding="utf-8"?>
<!-- Generator: Adobe Illustrator 25.4.1, SVG Export Plug-In . SVG Version: 6.00 Build 0)  -->
<svg version="1.1" id="Calque_1" xmlns="http://www.w3.org/2000/svg" xmlns:xlink="http://www.w3.org/1999/xlink" x="0px" y="0px"
	 viewBox="0 0 571 565" style="enable-background:new 0 0 571 565;" xml:space="preserve">
<g>
	<path d="M278.6,463L257.7,493l15.5,32.9l36.3,3.1l20.7-29.9l-15.5-32.9L278.6,463z"/>
	<path d="M343.5,432.5l-20.7,29.8l15.5,33l36.2,3l20.8-29.8l-15.5-33L343.5,432.5z"/>
	<path d="M102.5,102l-13.4,33.9l22.6,28.4l36.1-5.2l13.4-33.9l-22.7-28.5L102.5,102z"/>
	<path d="M137.2,88l13.4-33.9L128,25.6L92,31L78.6,64.8l22.6,28.5L137.2,88z"/>
	<path d="M168,119.8l36.1-5.3l13.4-33.9l-22.7-28.5l-36,5.3l-13.4,33.9L168,119.8z"/>
	<path d="M374.5,149c0.1,0,0.4,0.1,0.4,0.1l2.3,0.4l22.5,5.1c-1.1-6.6-2.4-15.2-3.2-25.1c-2.6-31.6-0.9-75.9,22.1-110.2
		c3.2-4.9,2.6-11.2-1.5-15.3c-0.5-0.5-1.1-1.1-1.8-1.5c-2.6-1.8-5.9-2.4-8.9-1.8c-3.2,0.6-5.9,2.4-7.7,5.2
		C372.9,44.1,369.5,91,372,126.3C372.6,134.7,373.5,142.3,374.5,149L374.5,149z"/>
	<path d="M563.5,150.7c-0.4-0.7-1-1.3-1.5-1.8c-4-4-10.4-4.6-15.2-1.4c-50.2,33.7-122.8,21.6-143.9,17.1l-1.1-0.3l-25.6-5.9
		l-2.5-0.4c-41.6-7.1-119.2-11.6-170,39.3c-44.7,44.7-46.6,110.1-41.6,153.6c0.4,3.3,0.9,6.5,1.3,9.4c0.2,0.1,0.4,0.1,0.6,0.1
		l2.5,0.4l22.2,4.9c-0.8-4.4-1.6-9.6-2.3-15.4c-4.4-36.6-4.4-97.4,34.3-136.1c45-45,120-37.7,152.1-31.9c3.1,0.6,5.9,1.1,8.1,1.6
		l1.1,0.2L408,190l1.9,0.4h0.3c2.2,0.4,4.4,0.7,6.8,1.1c35.7,5.2,96.1,7.5,143.3-24.1c2.7-1.8,4.4-4.6,5.2-7.7
		C565.9,156.5,565.2,153.3,563.5,150.7L563.5,150.7z"/>
	<path d="M408.9,199.4c-0.1,0-0.4-0.1-0.4-0.1l-2.5-0.5l-22.2-4.9c1.1,6.2,2.3,13.9,3.1,22.8c3.5,37,1.1,92.5-35.2,128.8
		c-44.7,44.7-119.4,37.8-151.5,32.1c-3.4-0.6-6.3-1.1-8.6-1.7l-1.1-0.3l-25.7-5.8l-2.5-0.4c-2.2-0.4-4.5-0.8-7-1.1
		c-35.8-5.2-96.1-7.4-143.2,24.2c-2.7,1.8-4.6,4.6-5.2,7.7c-0.7,3.1,0,6.4,1.8,9.1c0.4,0.6,1,1.2,1.6,1.8c4,4,10.4,4.6,15.1,1.5
		c50.2-33.9,122.9-21.8,143.9-17.2l1.1,0.2l25.8,5.9l2.4,0.4c41.7,7.2,119.2,11.6,170-39.3c38.2-38.2,45.2-91.4,43.3-133.3
		C411.4,218.4,410.3,208.2,408.9,199.4L408.9,199.4z"/>
	<path d="M406.3,82.2l77.6,77.6c8-1,16.1-2.5,24-4.8l-96.8-96.9C408.9,66.1,407.4,74.1,406.3,82.2L406.3,82.2z"/>
	<path d="M165.8,477.9L88,400.1c-8,1.1-16.1,2.6-24,4.9L161,502C163.2,494,164.8,485.9,165.8,477.9L165.8,477.9z"/>
	<path d="M378.7,250.4l-63-63c-8.5,0.4-17.2,1.2-26,2.8l86.2,86.2C377.4,267.8,378.2,259,378.7,250.4L378.7,250.4z"/>
	<path d="M226.9,220.9c-2.4,2.4-4.6,4.9-6.8,7.5l117.5,117.5c2.6-2.1,5.2-4.3,7.6-6.7c2.4-2.4,4.6-5,6.8-7.5L234.5,214.1
		C231.8,216.2,229.3,218.4,226.9,220.9L226.9,220.9z"/>
	<path d="M193.5,309.7l62.8,62.8c8.5-0.4,17.1-1.2,26-2.9l-85.9-85.9C194.7,292.5,193.9,301.3,193.5,309.7L193.5,309.7z"/>
	<path d="M197.6,410.9c-0.3,0-0.4,0-0.6-0.1l-2.3-0.4l-22.5-5.1c0.6,2.9,1.1,6.2,1.6,9.9c4.3,31.1,6.5,85.2-20.5,125.5
		c-3.2,4.7-2.5,11.1,1.5,15.1c0.6,0.6,1.1,1.1,1.8,1.5c2.6,1.8,5.9,2.5,9,1.8c3.1-0.6,5.9-2.4,7.7-5.2
		c29.8-44.4,29.6-100.6,25-136.9C198.1,415,197.9,412.9,197.6,410.9L197.6,410.9z"/>
</g>
</svg>
