<?xml version="1.0" encoding="utf-8"?>
<!-- Generator: Adobe Illustrator 25.2.0, SVG Export Plug-In . SVG Version: 6.00 Build 0)  -->
<svg version="1.2" baseProfile="tiny" id="Calque_1"
	 xmlns="http://www.w3.org/2000/svg" xmlns:xlink="http://www.w3.org/1999/xlink" x="0px" y="0px" viewBox="0 0 246.3 477.1"
	 overflow="visible" xml:space="preserve">
<g>
	<path fill="#3A8BB6" d="M224.6,433.4l20.6-35.8c1.4-2.5,1.4-5.5,0-8l-20.6-35.8l20.6-35.8c1.4-2.5,1.4-5.5,0-8l-23-39.8
		c-1.4-2.5-4.1-4-6.9-4h-41.7l-18.3-31.8l20.6-35.8c1.9-3.3,1.2-7.5-1.7-10L128.4,149c-3-2.6-7.5-2.6-10.5,0l-43.7,37.8H35.6
		L17.2,155l20.6-35.8c1.4-2.5,1.4-5.5,0-8l0,0L17.2,75.5l18.3-31.8h41.3v-16H35.4L19.4,0L5.5,8l16.1,27.9L1.1,71.5
		c-1.4,2.5-1.4,5.5,0,8l20.6,35.8L1.1,151c-1.4,2.5-1.4,5.5,0,8l23,39.8c1.4,2.5,4.1,4,6.9,4h41.7l13.7,23.8H60.2v16h26.2l-16,27.8
		c-1.4,2.5-1.4,5.5,0,8l23,39.8c1.4,2.5,4.1,4,6.9,4H142l13.7,23.8h-22v16h22l-16,27.8c-1.4,2.5-1.4,5.5,0,8l23,39.8
		c1.4,2.5,4.1,4,6.9,4h41.3l20.6,35.8l13.9-8L224.6,433.4z M104.8,226.6l-17.3-30l35.7-30.9l35.7,30.9l-17.3,30H104.8z M104.8,306.1
		l-18.3-31.8l18.3-31.8h36.7l18.3,31.8l-18.3,31.8H104.8z M174,345.8L155.7,314l18.3-31.8h36.7L229,314l-18.3,31.8H174z M174,425.3
		l-18.3-31.8l18.3-31.8h36.7l18.3,31.8l-18.3,31.8H174z"/>
	<rect x="195.2" y="314.4" transform="matrix(0.5 -0.866 0.866 0.5 -175.2378 341.3381)" fill="#3A8BB6" width="25.5" height="16"/>
</g>
</svg>
