<svg xmlns="http://www.w3.org/2000/svg" xmlns:xlink="http://www.w3.org/1999/xlink" version="1.1" x="0px" y="0px" viewBox="0 0 150 187.5" style="enable-background:new 0 0 150 150;" xml:space="preserve"><polygon points="113.45,96.05 113.45,65.05 111.86,65.05 111.86,96.05 105.5,96.05 105.5,83.81 103.91,83.81 103.91,96.05   102.32,96.05 102.32,89.52 100.73,89.52 100.73,96.05 99.14,96.05 99.14,89.52 97.55,89.52 97.55,96.05 84.83,96.05 84.83,91.97   83.24,91.97 83.24,96.05 81.65,96.05 81.65,38.94 80.06,38.94 80.06,96.05 78.47,96.05 78.47,51.17 76.88,51.17 76.88,96.05   75.29,96.05 75.29,65.86 73.71,65.86 73.71,96.05 72.12,96.05 72.12,87.08 70.53,87.08 70.53,96.05 56.22,96.05 56.22,77.29   54.63,77.29 54.63,96.05 53.04,96.05 53.04,89.93 51.45,89.93 51.45,96.05 49.86,96.05 49.86,68.31 48.27,68.31 48.27,96.05   30.38,96.05 30.38,32 28,32 28,96.05 28,98.09 28,98.5 121,98.5 121,96.05 "/><text x="0" y="165" fill="#000000" font-size="5px" font-weight="bold" font-family="'Helvetica Neue', Helvetica, Arial-Unicode, Arial, Sans-serif">Created by Léa Lortal</text><text x="0" y="170" fill="#000000" font-size="5px" font-weight="bold" font-family="'Helvetica Neue', Helvetica, Arial-Unicode, Arial, Sans-serif">from the Noun Project</text></svg>