<?xml version="1.0" encoding="utf-8"?>
<!-- Generator: Adobe Illustrator 25.4.1, SVG Export Plug-In . SVG Version: 6.00 Build 0)  -->
<svg version="1.1" id="Calque_1" xmlns="http://www.w3.org/2000/svg" xmlns:xlink="http://www.w3.org/1999/xlink" x="0px" y="0px"
	 viewBox="0 0 569 543" style="enable-background:new 0 0 569 543;" xml:space="preserve">
<symbol  id="a" viewBox="0 0 0 0">
	<path d="M0,0L0,0L0,0z M0,0L0,0L0,0L0,0L0,0L0,0L0,0L0,0L0,0L0,0L0,0z"/>
</symbol>
<symbol  id="b" viewBox="0 0 0 0">
	<path d="M0,0L0,0L0,0C0,0,0,0,0,0L0,0L0,0L0,0L0,0L0,0L0,0L0,0z"/>
</symbol>
<symbol  id="c" viewBox="0 0 0 0">
	<path d="M0,0L0,0L0,0z M0,0L0,0L0,0C0,0,0,0,0,0L0,0L0,0L0,0z"/>
</symbol>
<symbol  id="d" viewBox="0 0 0 0">
	<path d="M0,0L0,0L0,0L0,0L0,0L0,0L0,0z"/>
</symbol>
<symbol  id="e" viewBox="0 0 0 0">
	<path d="M0,0L0,0L0,0L0,0L0,0L0,0L0,0L0,0z"/>
</symbol>
<symbol  id="f" viewBox="0 0 0 0">
	<path d="M0,0L0,0L0,0L0,0L0,0L0,0L0,0L0,0L0,0L0,0C0,0,0,0,0,0z"/>
</symbol>
<symbol  id="g" viewBox="0 0 0 0">
	<path d="M0,0L0,0L0,0C0,0,0,0,0,0L0,0L0,0L0,0L0,0L0,0L0,0L0,0z"/>
</symbol>
<symbol  id="h" viewBox="0 0 0 0">
	<path d="M0,0L0,0L0,0L0,0L0,0L0,0L0,0L0,0z M0,0L0,0L0,0z"/>
</symbol>
<symbol  id="i" viewBox="0 0 0 0">
	<path d="M0,0L0,0L0,0L0,0L0,0C0,0,0,0,0,0z M0,0L0,0L0,0L0,0L0,0L0,0L0,0L0,0L0,0z"/>
</symbol>
<symbol  id="j" viewBox="0 0 0 0">
	<path d="M0,0L0,0L0,0L0,0L0,0L0,0L0,0L0,0L0,0L0,0L0,0z"/>
</symbol>
<symbol  id="k" viewBox="0 0 0 0">
	<path d="M0,0L0,0L0,0z M0,0L0,0C0,0,0,0,0,0L0,0L0,0L0,0L0,0L0,0L0,0z"/>
</symbol>
<symbol  id="l" viewBox="0 0 0 0">
	<path d="M0,0L0,0L0,0L0,0L0,0L0,0L0,0L0,0L0,0z M0,0L0,0L0,0z"/>
</symbol>
<symbol  id="m" viewBox="0 0 0 0">
	<path d="M0,0L0,0L0,0L0,0L0,0L0,0L0,0L0,0L0,0L0,0z"/>
</symbol>
<symbol  id="n" viewBox="0 0 0 0">
	<path d="M0,0L0,0L0,0L0,0L0,0L0,0z M0,0L0,0L0,0z"/>
</symbol>
<symbol  id="o" viewBox="0 0 0 0">
	<path d="M0,0L0,0L0,0L0,0L0,0L0,0L0,0L0,0L0,0L0,0L0,0L0,0z"/>
</symbol>
<symbol  id="p" viewBox="0 0 0 0">
	<path d="M0,0L0,0L0,0L0,0L0,0L0,0L0,0L0,0L0,0z"/>
</symbol>
<symbol  id="q" viewBox="0 0 0 0">
	<path d="M0,0L0,0L0,0L0,0L0,0L0,0L0,0L0,0L0,0L0,0C0,0,0,0,0,0z"/>
</symbol>
<symbol  id="r" viewBox="0 0 0 0">
	<path d="M0,0L0,0C0,0,0,0,0,0L0,0L0,0L0,0L0,0L0,0L0,0L0,0L0,0L0,0L0,0L0,0L0,0L0,0L0,0z"/>
</symbol>
<symbol  id="s" viewBox="0 0 0 0">
	<path d="M0,0L0,0L0,0L0,0L0,0z"/>
</symbol>
<symbol  id="t" viewBox="0 0 0 0">
	<path d="M0,0L0,0L0,0L0,0L0,0L0,0L0,0L0,0L0,0L0,0L0,0L0,0z"/>
</symbol>
<symbol  id="u" viewBox="0 0 0 0">
	<path d="M0,0L0,0L0,0L0,0L0,0L0,0L0,0z"/>
</symbol>
<symbol  id="v" viewBox="0 0 0 0">
	<path d="M0,0L0,0L0,0L0,0L0,0z"/>
</symbol>
<symbol  id="w" viewBox="0 0 0 0">
	<path d="M0,0L0,0L0,0L0,0L0,0L0,0L0,0L0,0L0,0L0,0L0,0L0,0L0,0z"/>
</symbol>
<g>
	<path d="M33.4,148.6h11.2v-12c0-6.9,2.8-13.1,7.3-17.6c4.5-4.5,10.8-7.3,17.6-7.3h7.6v-1.6c0-6.9,2.8-13.1,7.3-17.6
		c4.5-4.5,10.8-7.3,17.6-7.3h7.6v-1.6c0-6.9,2.8-13.1,7.3-17.6c4.5-4.5,10.8-7.3,17.6-7.3h7.6v-1.6c0-6.9,2.8-13.1,7.3-17.6
		c4.5-4.5,10.8-7.3,17.6-7.3h7.6v-1.6c0-6.9,2.8-13.1,7.3-17.6c4.5-4.5,10.8-7.3,17.6-7.3h337.3c6.9,0,13.1,2.8,17.6,7.3
		c4.5,4.5,7.3,10.8,7.3,17.6v337.3c0,6.9-2.8,13.1-7.3,17.6c-4.5,4.5-10.8,7.3-17.6,7.3h-7.6v1.6c0,6.9-2.8,13.1-7.3,17.6
		c-4.5,4.5-10.8,7.3-17.6,7.3c-0.1,0-0.2,0-0.3,0l-7.2,0v1.5c0,6.9-2.8,13.1-7.3,17.6s-10.8,7.3-17.6,7.3h-7.6v1.6
		c0,6.9-2.8,13.1-7.3,17.6c-4.5,4.5-10.8,7.3-17.6,7.3h-7.6v1.6c0,6.9-2.8,13.1-7.3,17.6c-4.5,4.5-10.8,7.3-17.6,7.3h-11.2v12
		c0,6.9-2.8,13.1-7.3,17.6c-4.5,4.5-10.8,7.3-17.6,7.3H33.4c-6.9,0-13.1-2.8-17.6-7.3c-4.5-4.5-7.3-10.8-7.3-17.6V173.6
		c0-6.9,2.8-13.1,7.3-17.6C20.3,151.5,26.6,148.6,33.4,148.6L33.4,148.6z M260.2,255c-0.8,1-2.2,1.3-3.2,0.5c-1-0.8-1.3-2.2-0.5-3.2
		c4.3-6,10.1-10.9,16.7-14.2c6.4-3.2,13.6-5.1,21.2-5.1c12.9,0,24.7,5.2,33.2,13.7c8.5,8.5,13.7,20.2,13.7,33.2s-5.2,24.7-13.7,33.2
		c-8.5,8.5-20.2,13.7-33.2,13.7c-1.3,0-2.3-1-2.3-2.3c0-1.3,1-2.3,2.3-2.3c11.7,0,22.2-4.7,29.9-12.4c7.6-7.6,12.4-18.2,12.4-29.9
		s-4.7-22.2-12.4-29.9c-7.6-7.6-18.2-12.4-29.9-12.4c-6.9,0-13.4,1.6-19.1,4.6C269.2,245.3,264.1,249.7,260.2,255L260.2,255z
		 M191.2,460.5l35.9-66.6l-94.2,0c-2.1,4.9-5.1,9.3-8.7,13c-7.4,7.4-17.6,12-28.9,12c-11.3,0-21.5-4.6-28.9-12
		c-7.4-7.4-12-17.6-12-28.9c0-11.3,4.6-21.5,12-28.9c7.4-7.4,17.6-12,28.9-12c11.3,0,21.5,4.6,28.9,12c2.9,2.9,5.4,6.4,7.4,10.1
		l44.4-17.9c-0.9-3.1-1.3-6.3-1.3-9.7c0-9.8,4-18.6,10.4-25c2.3-2.3,4.9-4.3,7.8-5.9l-25.1-58.7c-0.5-1.2-0.3-2.5,0.3-3.5
		c-4.3,1.9-9,2.9-14,2.9c-9.7,0-18.5-3.9-24.8-10.3c-6.4-6.4-10.3-15.1-10.3-24.8c0-9.7,3.9-18.5,10.3-24.8
		c6.4-6.4,15.1-10.3,24.8-10.3c9.7,0,18.5,3.9,24.8,10.3c6.4,6.4,10.3,15.1,10.3,24.8c0,5.7-1.4,11.1-3.8,15.9
		c0.4,0.1,0.8,0.3,1.2,0.6l81.4,58.6c0-0.5,0-1,0-1.5c0-6.9,2.8-13.2,7.4-17.7c4.5-4.5,10.8-7.4,17.7-7.4c6.9,0,13.2,2.8,17.7,7.4
		c4.5,4.5,7.4,10.8,7.4,17.7c0,6.9-2.8,13.2-7.4,17.7c-4.5,4.5-10.8,7.4-17.7,7.4c-3,0-5.9-0.5-8.6-1.5L256,356l34.1,13.5
		c5.2-5,12.3-8.1,20.1-8.1c8,0,15.2,3.2,20.4,8.5c5.2,5.2,8.5,12.4,8.5,20.4s-3.2,15.2-8.5,20.4c-5.2,5.2-12.4,8.5-20.4,8.5
		s-15.2-3.2-20.4-8.5c-4.4-4.4-7.4-10.2-8.2-16.7l-46,0l-36.4,67.5c4.9,1.3,9.3,3.9,12.7,7.3c5.1,5.1,8.3,12.2,8.3,20
		s-3.2,14.9-8.3,20c-5.1,5.1-12.2,8.3-20,8.3s-14.9-3.2-20-8.3c-5.1-5.1-8.3-12.2-8.3-20s3.2-14.9,8.3-20
		C176.8,463.9,183.6,460.7,191.2,460.5L191.2,460.5z M231.1,386.5l14.4-26.7l-9.7-3.8c-0.3,0.3-0.5,0.6-0.8,0.8
		c-6.4,6.4-15.2,10.4-25,10.4c-9.8,0-18.6-4-25-10.4c-2.5-2.5-4.6-5.3-6.2-8.4l-44.3,17.9c1.1,3.8,1.8,7.7,1.8,11.9
		c0,2.9-0.3,5.7-0.9,8.4L231.1,386.5L231.1,386.5z M249,353.2l28.6-53.1c-0.9-0.7-1.8-1.5-2.6-2.3c-0.6-0.6-1.2-1.2-1.7-1.9
		l-31.6,20.3c2.3,4.7,3.6,10,3.6,15.5c0,6.6-1.8,12.8-4.9,18L249,353.2L249,353.2z M252.4,362.5l-12.9,24l42,0
		c0.5-4,1.8-7.7,3.8-10.9L252.4,362.5L252.4,362.5z M305.2,267.6c-3.2-3.2-7.6-5.2-12.5-5.2c-4.9,0-9.3,2-12.5,5.2
		c-3.2,3.2-5.2,7.6-5.2,12.5c0,4.9,2,9.3,5.2,12.5c3.2,3.2,7.6,5.2,12.5,5.2c4.9,0,9.3-2,12.5-5.2c3.2-3.2,5.2-7.6,5.2-12.5
		C310.4,275.1,308.4,270.7,305.2,267.6z M325.3,375.1c-3.9-3.9-9.2-6.3-15.1-6.3s-11.3,2.4-15.1,6.3c-3.9,3.9-6.3,9.2-6.3,15.1
		c0,5.9,2.4,11.3,6.3,15.1c3.9,3.9,9.2,6.3,15.1,6.3s11.3-2.4,15.1-6.3c3.9-3.9,6.3-9.2,6.3-15.1
		C331.6,384.3,329.2,378.9,325.3,375.1z M206.6,474.1c-3.8-3.8-9-6.1-14.7-6.1s-11,2.3-14.7,6.1c-3.8,3.8-6.1,9-6.1,14.7
		s2.3,11,6.1,14.7c3.8,3.8,9,6.1,14.7,6.1c5.8,0,11-2.3,14.7-6.1c3.8-3.8,6.1-9,6.1-14.7S210.3,477.9,206.6,474.1z M118.9,354.5
		c-6-6-14.4-9.8-23.6-9.8s-17.5,3.7-23.6,9.8c-6,6-9.8,14.4-9.8,23.6s3.7,17.5,9.8,23.6c6,6,14.4,9.8,23.6,9.8s17.5-3.7,23.6-9.8
		c6-6,9.8-14.4,9.8-23.6S124.9,360.5,118.9,354.5z M209.9,296.3c9.8,0,18.6,4,25,10.4c1,1,1.9,2.1,2.8,3.2l29.9-19.2L182,228.9
		c-0.3-0.2-0.5-0.4-0.7-0.6c-0.8,1-1.7,2-2.6,2.9c-2.2,2.2-4.8,4.2-7.5,5.7c1.4,0.1,2.7,0.9,3.2,2.3l25.1,58.7
		C202.8,296.9,206.3,296.3,209.9,296.3L209.9,296.3z M229.7,312c-5.1-5.1-12-8.2-19.7-8.2c-7.7,0-14.7,3.1-19.7,8.2
		c-5.1,5.1-8.2,12-8.2,19.7c0,7.7,3.1,14.7,8.2,19.7c5.1,5.1,12,8.2,19.7,8.2c7.7,0,14.7-3.1,19.7-8.2c5.1-5.1,8.2-12,8.2-19.7
		C237.9,324,234.7,317,229.7,312L229.7,312z M173.4,186.9c-5-5-11.9-8.1-19.5-8.1c-7.6,0-14.5,3.1-19.5,8.1c-5,5-8.1,11.9-8.1,19.5
		s3.1,14.5,8.1,19.5c5,5,11.9,8.1,19.5,8.1c7.6,0,14.5-3.1,19.5-8.1c5-5,8.1-11.9,8.1-19.5S178.4,191.9,173.4,186.9z M209.9,320.7
		c-1.3,0-2.3-1-2.3-2.3s1-2.3,2.3-2.3c4.3,0,8.3,1.8,11.1,4.6c2.8,2.8,4.6,6.8,4.6,11.1c0,1.3-1,2.3-2.3,2.3c-1.3,0-2.3-1-2.3-2.3
		c0-3-1.2-5.8-3.2-7.8C215.7,321.9,213,320.7,209.9,320.7L209.9,320.7z M52.1,148.6h318.6c6.9,0,13.1,2.8,17.6,7.3
		s7.3,10.8,7.3,17.6v317.8h11.2c4.8,0,9.2-2,12.3-5.1s5.1-7.5,5.1-12.3V136.6c0-4.8-2-9.2-5.1-12.3c-3.2-3.2-7.5-5.1-12.3-5.1H69.5
		c-4.8,0-9.2,2-12.3,5.1c-3.2,3.2-5.1,7.5-5.1,12.3L52.1,148.6L52.1,148.6z M213.9,156.1H33.4c-4.8,0-9.2,2-12.3,5.1
		c-3.2,3.2-5.1,7.5-5.1,12.3v337.3c0,4.8,2,9.2,5.1,12.3c3.2,3.2,7.5,5.1,12.3,5.1h337.3c4.8,0,9.2-2,12.3-5.1s5.1-7.5,5.1-12.3
		V173.6c0-4.8-2-9.2-5.1-12.3c-3.2-3.2-7.5-5.1-12.3-5.1L213.9,156.1z M182,30.7v1.6h322.3c6.9,0,13.1,2.8,17.6,7.3
		s7.3,10.8,7.3,17.6v328.3h7.6c4.8,0,9.2-2,12.3-5.1c3.2-3.2,5.1-7.5,5.1-12.3V30.7c0-4.8-2-9.2-5.1-12.3c-3.2-3.2-7.5-5.1-12.3-5.1
		H199.5c-4.8,0-9.2,2-12.3,5.1C184,21.5,182,25.9,182,30.7L182,30.7z M149.5,57.2v1.6h322.3c6.9,0,13.1,2.8,17.6,7.3
		c4.5,4.5,7.3,10.8,7.3,17.6V412l7.2,0c0.1,0,0.2,0,0.4,0c4.8,0,9.2-2,12.3-5.1s5.1-7.5,5.1-12.3V57.2c0-4.8-2-9.2-5.1-12.3
		s-7.5-5.1-12.3-5.1H167c-4.8,0-9.2,2-12.3,5.1C151.5,48,149.6,52.4,149.5,57.2L149.5,57.2z M117,83.6v1.6h322.3
		c6.9,0,13.1,2.8,17.6,7.3c4.5,4.5,7.3,10.8,7.3,17.6v328.3h7.6c4.8,0,9.2-2,12.3-5.1c3.2-3.2,5.1-7.5,5.1-12.3V83.7
		c0-4.8-2-9.2-5.1-12.3c-3.2-3.2-7.5-5.1-12.3-5.1H134.5c-4.8,0-9.2,2-12.3,5.1C119,74.5,117.1,78.9,117,83.6L117,83.6z M84.5,110.1
		v1.6h322.3c6.9,0,13.1,2.8,17.6,7.3c4.5,4.5,7.3,10.8,7.3,17.6v328.3h7.6c4.8,0,9.2-2,12.3-5.1s5.1-7.5,5.1-12.3V110.1
		c0-4.8-2-9.2-5.1-12.3c-3.2-3.2-7.5-5.1-12.3-5.1H102c-4.8,0-9.2,2-12.3,5.1C86.5,101,84.6,105.3,84.5,110.1L84.5,110.1z"/>
	<use xlink:href="#w"  width="0" height="0" x="0" y="0" transform="matrix(1 0 0 1 6.0156 560.125)" style="overflow:visible;"/>
	<use xlink:href="#e"  width="0" height="0" x="0" y="0" transform="matrix(1 0 0 1 6.043 560.125)" style="overflow:visible;"/>
	<use xlink:href="#b"  width="0" height="0" x="0" y="0" transform="matrix(1 0 0 1 6.0742 560.125)" style="overflow:visible;"/>
	<use xlink:href="#a"  width="0" height="0" x="0" y="0" transform="matrix(1 0 0 1 6.1055 560.125)" style="overflow:visible;"/>
	<use xlink:href="#d"  width="0" height="0" x="0" y="0" transform="matrix(1 0 0 1 6.1289 560.125)" style="overflow:visible;"/>
	<g>
		<defs>
			<rect id="SVGID_1_" x="6.1" y="560.1" width="700" height="700"/>
		</defs>
		<clipPath id="SVGID_00000115494468388045820890000011784526228072606616_">
			<use xlink:href="#SVGID_1_"  style="overflow:visible;"/>
		</clipPath>
		<g style="clip-path:url(#SVGID_00000115494468388045820890000011784526228072606616_);">
			<use xlink:href="#b"  width="0" height="0" x="0" y="0" transform="matrix(1 0 0 1 6.1602 560.125)" style="overflow:visible;"/>
		</g>
	</g>
	<use xlink:href="#l"  width="0" height="0" x="0" y="0" transform="matrix(1 0 0 1 6.1914 560.125)" style="overflow:visible;"/>
	<use xlink:href="#k"  width="0" height="0" x="0" y="0" transform="matrix(1 0 0 1 6.2383 560.125)" style="overflow:visible;"/>
	<use xlink:href="#j"  width="0" height="0" x="0" y="0" transform="matrix(1 0 0 1 6.2734 560.1328)" style="overflow:visible;"/>
	<use xlink:href="#i"  width="0" height="0" x="0" y="0" transform="matrix(1 0 0 1 6.3203 560.125)" style="overflow:visible;"/>
	<use xlink:href="#v"  width="0" height="0" x="0" y="0" transform="matrix(1 0 0 1 6.3516 560.125)" style="overflow:visible;"/>
	<g>
		<defs>
			<rect id="SVGID_00000136372221217698633830000009694721361734896277_" x="6.4" y="560.1" width="700" height="700"/>
		</defs>
		<clipPath id="SVGID_00000028312173139510600130000011655142723961132184_">
			<use xlink:href="#SVGID_00000136372221217698633830000009694721361734896277_"  style="overflow:visible;"/>
		</clipPath>
		<g style="clip-path:url(#SVGID_00000028312173139510600130000011655142723961132184_);">
			<use xlink:href="#b"  width="0" height="0" x="0" y="0" transform="matrix(1 0 0 1 6.375 560.125)" style="overflow:visible;"/>
		</g>
	</g>
	<use xlink:href="#f"  width="0" height="0" x="0" y="0" transform="matrix(1 0 0 1 6.4062 560.125)" style="overflow:visible;"/>
	<g>
		<defs>
			<rect id="SVGID_00000083776215243324497850000004134460144802304677_" x="6.4" y="560.1" width="700" height="700"/>
		</defs>
		<clipPath id="SVGID_00000003811998163606557510000011504566558191352494_">
			<use xlink:href="#SVGID_00000083776215243324497850000004134460144802304677_"  style="overflow:visible;"/>
		</clipPath>
		<g style="clip-path:url(#SVGID_00000003811998163606557510000011504566558191352494_);">
			<use xlink:href="#a"  width="0" height="0" x="0" y="0" transform="matrix(1 0 0 1 6.4414 560.125)" style="overflow:visible;"/>
		</g>
	</g>
	<use xlink:href="#h"  width="0" height="0" x="0" y="0" transform="matrix(1 0 0 1 6.4883 560.125)" style="overflow:visible;"/>
	<g>
		<defs>
			<rect id="SVGID_00000165225564963389314450000004434473825621418626_" x="6.5" y="560.1" width="700" height="700"/>
		</defs>
		<clipPath id="SVGID_00000140731074414115110470000011866836311067676288_">
			<use xlink:href="#SVGID_00000165225564963389314450000004434473825621418626_"  style="overflow:visible;"/>
		</clipPath>
		<g style="clip-path:url(#SVGID_00000140731074414115110470000011866836311067676288_);">
			<use xlink:href="#a"  width="0" height="0" x="0" y="0" transform="matrix(1 0 0 1 6.5234 560.125)" style="overflow:visible;"/>
		</g>
	</g>
	<g>
		<defs>
			<rect id="SVGID_00000099626475400010863430000004910584141252889257_" x="6.5" y="560.1" width="700" height="700"/>
		</defs>
		<clipPath id="SVGID_00000009572149728316010600000016918808931168874906_">
			<use xlink:href="#SVGID_00000099626475400010863430000004910584141252889257_"  style="overflow:visible;"/>
		</clipPath>
		<g style="clip-path:url(#SVGID_00000009572149728316010600000016918808931168874906_);">
			<use xlink:href="#f"  width="0" height="0" x="0" y="0" transform="matrix(1 0 0 1 6.5547 560.125)" style="overflow:visible;"/>
		</g>
	</g>
	<g>
		<defs>
			<rect id="SVGID_00000047773418768525986560000014347683661727256468_" x="6.6" y="560.1" width="700" height="700"/>
		</defs>
		<clipPath id="SVGID_00000013897883027727355110000005836877074888630206_">
			<use xlink:href="#SVGID_00000047773418768525986560000014347683661727256468_"  style="overflow:visible;"/>
		</clipPath>
		<g style="clip-path:url(#SVGID_00000013897883027727355110000005836877074888630206_);">
			<use xlink:href="#a"  width="0" height="0" x="0" y="0" transform="matrix(1 0 0 1 6.5859 560.125)" style="overflow:visible;"/>
		</g>
	</g>
	<use xlink:href="#g"  width="0" height="0" x="0" y="0" transform="matrix(1 0 0 1 6.6172 560.125)" style="overflow:visible;"/>
	<use xlink:href="#c"  width="0" height="0" x="0" y="0" transform="matrix(1 0 0 1 6.6445 560.125)" style="overflow:visible;"/>
	<use xlink:href="#u"  width="0" height="0" x="0" y="0" transform="matrix(1 0 0 1 6.6797 560.125)" style="overflow:visible;"/>
	<g>
		<defs>
			<rect id="SVGID_00000031168076322446858520000011848661981506990738_" x="6.7" y="560.1" width="700" height="700"/>
		</defs>
		<clipPath id="SVGID_00000042730786198849502130000008308802032961118356_">
			<use xlink:href="#SVGID_00000031168076322446858520000011848661981506990738_"  style="overflow:visible;"/>
		</clipPath>
		<g style="clip-path:url(#SVGID_00000042730786198849502130000008308802032961118356_);">
			<use xlink:href="#g"  width="0" height="0" x="0" y="0" transform="matrix(1 0 0 1 6.707 560.125)" style="overflow:visible;"/>
		</g>
	</g>
	<use xlink:href="#t"  width="0" height="0" x="0" y="0" transform="matrix(1 0 0 1 6.7383 560.125)" style="overflow:visible;"/>
	<g>
		<defs>
			<rect id="SVGID_00000053507909100864904550000000163518330366379684_" x="6.8" y="560.1" width="700" height="700"/>
		</defs>
		<clipPath id="SVGID_00000114062467831727306850000010494444624550516869_">
			<use xlink:href="#SVGID_00000053507909100864904550000000163518330366379684_"  style="overflow:visible;"/>
		</clipPath>
		<g style="clip-path:url(#SVGID_00000114062467831727306850000010494444624550516869_);">
			<use xlink:href="#a"  width="0" height="0" x="0" y="0" transform="matrix(1 0 0 1 6.7656 560.125)" style="overflow:visible;"/>
		</g>
	</g>
	<use xlink:href="#s"  width="0" height="0" x="0" y="0" transform="matrix(1 0 0 1 6.0078 560.1719)" style="overflow:visible;"/>
	<g>
		<defs>
			<rect id="SVGID_00000147936881044304986800000018288962541504707006_" x="6" y="560.2" width="700" height="700"/>
		</defs>
		<clipPath id="SVGID_00000103255787900145025440000002608150427625395387_">
			<use xlink:href="#SVGID_00000147936881044304986800000018288962541504707006_"  style="overflow:visible;"/>
		</clipPath>
		<g style="clip-path:url(#SVGID_00000103255787900145025440000002608150427625395387_);">
			
				<use xlink:href="#e"  width="0" height="0" x="0" y="0" transform="matrix(1 0 0 1 6.0273 560.1719)" style="overflow:visible;"/>
		</g>
	</g>
	<g>
		<defs>
			<rect id="SVGID_00000159428008482832089620000001292509864491890567_" x="6" y="560.2" width="700" height="700"/>
		</defs>
		<clipPath id="SVGID_00000114758928032928739570000009714403160898121344_">
			<use xlink:href="#SVGID_00000159428008482832089620000001292509864491890567_"  style="overflow:visible;"/>
		</clipPath>
		<g style="clip-path:url(#SVGID_00000114758928032928739570000009714403160898121344_);">
			
				<use xlink:href="#c"  width="0" height="0" x="0" y="0" transform="matrix(1 0 0 1 6.0586 560.1719)" style="overflow:visible;"/>
		</g>
	</g>
	<use xlink:href="#r"  width="0" height="0" x="0" y="0" transform="matrix(1 0 0 1 6.0977 560.1719)" style="overflow:visible;"/>
	<g>
		<defs>
			<rect id="SVGID_00000100345315619626865070000015794668478394836410_" x="6.1" y="560.2" width="700" height="700"/>
		</defs>
		<clipPath id="SVGID_00000094609614873324326700000018416537716472775585_">
			<use xlink:href="#SVGID_00000100345315619626865070000015794668478394836410_"  style="overflow:visible;"/>
		</clipPath>
		<g style="clip-path:url(#SVGID_00000094609614873324326700000018416537716472775585_);">
			
				<use xlink:href="#d"  width="0" height="0" x="0" y="0" transform="matrix(1 0 0 1 6.1484 560.1719)" style="overflow:visible;"/>
		</g>
	</g>
	<use xlink:href="#q"  width="0" height="0" x="0" y="0" transform="matrix(1 0 0 1 6.1797 560.1719)" style="overflow:visible;"/>
	<g>
		<defs>
			<rect id="SVGID_00000111179822186081823720000009523004355945895588_" x="6.2" y="560.2" width="700" height="700"/>
		</defs>
		<clipPath id="SVGID_00000142161519603617885720000015826067040554770063_">
			<use xlink:href="#SVGID_00000111179822186081823720000009523004355945895588_"  style="overflow:visible;"/>
		</clipPath>
		<g style="clip-path:url(#SVGID_00000142161519603617885720000015826067040554770063_);">
			
				<use xlink:href="#b"  width="0" height="0" x="0" y="0" transform="matrix(1 0 0 1 6.2109 560.1719)" style="overflow:visible;"/>
		</g>
	</g>
	<use xlink:href="#p"  width="0" height="0" x="0" y="0" transform="matrix(1 0 0 1 6.2578 560.1719)" style="overflow:visible;"/>
	<g>
		<defs>
			<rect id="SVGID_00000010282784784545463620000005761711561885356478_" x="6.3" y="560.2" width="700" height="700"/>
		</defs>
		<clipPath id="SVGID_00000083791620542404456980000012738466850274256035_">
			<use xlink:href="#SVGID_00000010282784784545463620000005761711561885356478_"  style="overflow:visible;"/>
		</clipPath>
		<g style="clip-path:url(#SVGID_00000083791620542404456980000012738466850274256035_);">
			
				<use xlink:href="#c"  width="0" height="0" x="0" y="0" transform="matrix(1 0 0 1 6.2969 560.1719)" style="overflow:visible;"/>
		</g>
	</g>
	<use xlink:href="#o"  width="0" height="0" x="0" y="0" transform="matrix(1 0 0 1 6.332 560.1719)" style="overflow:visible;"/>
	<g>
		<defs>
			<rect id="SVGID_00000109730826630934747790000012669302384542516410_" x="6.3" y="560.2" width="700" height="700"/>
		</defs>
		<clipPath id="SVGID_00000175280211953765497260000015977458671392491696_">
			<use xlink:href="#SVGID_00000109730826630934747790000012669302384542516410_"  style="overflow:visible;"/>
		</clipPath>
		<g style="clip-path:url(#SVGID_00000175280211953765497260000015977458671392491696_);">
			
				<use xlink:href="#f"  width="0" height="0" x="0" y="0" transform="matrix(1 0 0 1 6.3633 560.1719)" style="overflow:visible;"/>
		</g>
	</g>
	<g>
		<defs>
			<rect id="SVGID_00000057832352830258689600000004712200064399685251_" x="6.4" y="560.2" width="700" height="700"/>
		</defs>
		<clipPath id="SVGID_00000065794534745316435970000014307690213803669426_">
			<use xlink:href="#SVGID_00000057832352830258689600000004712200064399685251_"  style="overflow:visible;"/>
		</clipPath>
		<g style="clip-path:url(#SVGID_00000065794534745316435970000014307690213803669426_);">
			
				<use xlink:href="#h"  width="0" height="0" x="0" y="0" transform="matrix(1 0 0 1 6.4141 560.1719)" style="overflow:visible;"/>
		</g>
	</g>
	<g>
		<defs>
			<rect id="SVGID_00000061466053832662383700000015003728728447358862_" x="6.4" y="560.2" width="700" height="700"/>
		</defs>
		<clipPath id="SVGID_00000135668343893418791580000015183351374103960218_">
			<use xlink:href="#SVGID_00000061466053832662383700000015003728728447358862_"  style="overflow:visible;"/>
		</clipPath>
		<g style="clip-path:url(#SVGID_00000135668343893418791580000015183351374103960218_);">
			
				<use xlink:href="#e"  width="0" height="0" x="0" y="0" transform="matrix(1 0 0 1 6.4414 560.1719)" style="overflow:visible;"/>
		</g>
	</g>
	<g>
		<defs>
			<rect id="SVGID_00000075846304415766218910000010272089888345276586_" x="6.5" y="560.2" width="700" height="700"/>
		</defs>
		<clipPath id="SVGID_00000128485087574146612490000011097739916496727704_">
			<use xlink:href="#SVGID_00000075846304415766218910000010272089888345276586_"  style="overflow:visible;"/>
		</clipPath>
		<g style="clip-path:url(#SVGID_00000128485087574146612490000011097739916496727704_);">
			
				<use xlink:href="#c"  width="0" height="0" x="0" y="0" transform="matrix(1 0 0 1 6.4688 560.1719)" style="overflow:visible;"/>
		</g>
	</g>
	<use xlink:href="#n"  width="0" height="0" x="0" y="0" transform="matrix(1 0 0 1 6.4961 560.1797)" style="overflow:visible;"/>
	<g>
		<defs>
			<rect id="SVGID_00000109020020208925721050000008122310992479217046_" x="6.5" y="560.2" width="700" height="700"/>
		</defs>
		<clipPath id="SVGID_00000121998919122430671030000012969319387888832415_">
			<use xlink:href="#SVGID_00000109020020208925721050000008122310992479217046_"  style="overflow:visible;"/>
		</clipPath>
		<g style="clip-path:url(#SVGID_00000121998919122430671030000012969319387888832415_);">
			
				<use xlink:href="#b"  width="0" height="0" x="0" y="0" transform="matrix(1 0 0 1 6.5195 560.1719)" style="overflow:visible;"/>
		</g>
	</g>
	<use xlink:href="#m"  width="0" height="0" x="0" y="0" transform="matrix(1 0 0 1 6.5508 560.1719)" style="overflow:visible;"/>
	<g>
		<defs>
			<rect id="SVGID_00000179604858673054068390000016872383118897384625_" x="6.6" y="560.2" width="700" height="700"/>
		</defs>
		<clipPath id="SVGID_00000050661285616858932070000018009087253633421497_">
			<use xlink:href="#SVGID_00000179604858673054068390000016872383118897384625_"  style="overflow:visible;"/>
		</clipPath>
		<g style="clip-path:url(#SVGID_00000050661285616858932070000018009087253633421497_);">
			
				<use xlink:href="#d"  width="0" height="0" x="0" y="0" transform="matrix(1 0 0 1 6.5703 560.1719)" style="overflow:visible;"/>
		</g>
	</g>
</g>
</svg>
